<mxfile host="Electron" modified="2025-03-30T11:28:35.409Z" agent="Mozilla/5.0 (Macintosh; Intel Mac OS X 10_15_7) AppleWebKit/537.36 (KHTML, like Gecko) draw.io/21.6.5 Chrome/114.0.5735.243 Electron/25.3.1 Safari/537.36" etag="cXlNJuBFv6YkYSNNrBUN" version="21.6.5" type="device">
  <diagram name="Page01" id="CLT_2mR4utQD6ZO4cxcB">
    <mxGraphModel dx="1496" dy="694" grid="1" gridSize="10" guides="1" tooltips="1" connect="1" arrows="1" fold="1" page="1" pageScale="1" pageWidth="827" pageHeight="1169" math="0" shadow="0">
      <root>
        <mxCell id="0" />
        <mxCell id="1" parent="0" />
        <mxCell id="xAboNISMEZ5DTB7xxnmk-13" value="" style="rounded=0;whiteSpace=wrap;html=1;fontSize=18;" vertex="1" parent="1">
          <mxGeometry x="-80" y="480" width="240" height="120" as="geometry" />
        </mxCell>
        <mxCell id="xAboNISMEZ5DTB7xxnmk-1" value="" style="rounded=0;whiteSpace=wrap;html=1;fontSize=18;" vertex="1" parent="1">
          <mxGeometry x="-120" y="40" width="600" height="320" as="geometry" />
        </mxCell>
        <mxCell id="xAboNISMEZ5DTB7xxnmk-8" style="rounded=0;orthogonalLoop=1;jettySize=auto;html=1;entryX=1;entryY=0.5;entryDx=0;entryDy=0;fillColor=#e51400;strokeColor=#B20000;fontSize=18;strokeWidth=2;" edge="1" parent="1" source="xAboNISMEZ5DTB7xxnmk-2" target="xAboNISMEZ5DTB7xxnmk-7">
          <mxGeometry relative="1" as="geometry" />
        </mxCell>
        <mxCell id="xAboNISMEZ5DTB7xxnmk-20" value="&lt;span style=&quot;font-size: 12px;&quot;&gt;ioctl&lt;br&gt;CREATE/REMOVE&lt;/span&gt;" style="edgeLabel;html=1;align=center;verticalAlign=middle;resizable=0;points=[];labelBackgroundColor=none;fontSize=12;" vertex="1" connectable="0" parent="xAboNISMEZ5DTB7xxnmk-8">
          <mxGeometry x="0.2933" y="3" relative="1" as="geometry">
            <mxPoint x="26" y="27" as="offset" />
          </mxGeometry>
        </mxCell>
        <mxCell id="xAboNISMEZ5DTB7xxnmk-2" value="/dev/vrtsctl" style="rounded=0;whiteSpace=wrap;html=1;fillColor=#b1ddf0;strokeColor=#10739e;fontSize=18;" vertex="1" parent="1">
          <mxGeometry x="240" y="340" width="120" height="100" as="geometry" />
        </mxCell>
        <mxCell id="xAboNISMEZ5DTB7xxnmk-5" style="rounded=0;orthogonalLoop=1;jettySize=auto;html=1;fontSize=18;fillColor=#e51400;strokeColor=#B20000;entryX=0.5;entryY=0;entryDx=0;entryDy=0;strokeWidth=2;" edge="1" parent="1" source="xAboNISMEZ5DTB7xxnmk-3" target="xAboNISMEZ5DTB7xxnmk-2">
          <mxGeometry relative="1" as="geometry">
            <mxPoint x="340" y="442" as="targetPoint" />
          </mxGeometry>
        </mxCell>
        <mxCell id="xAboNISMEZ5DTB7xxnmk-6" value="ioctl" style="edgeLabel;html=1;align=center;verticalAlign=middle;resizable=0;points=[];fontSize=12;labelBackgroundColor=none;" vertex="1" connectable="0" parent="xAboNISMEZ5DTB7xxnmk-5">
          <mxGeometry x="-0.2" relative="1" as="geometry">
            <mxPoint x="-21" y="24" as="offset" />
          </mxGeometry>
        </mxCell>
        <mxCell id="xAboNISMEZ5DTB7xxnmk-30" value="alloc_chrdev_region" style="edgeLabel;html=1;align=center;verticalAlign=middle;resizable=0;points=[];fontSize=12;" vertex="1" connectable="0" parent="xAboNISMEZ5DTB7xxnmk-5">
          <mxGeometry x="-0.3574" y="2" relative="1" as="geometry">
            <mxPoint x="-63" as="offset" />
          </mxGeometry>
        </mxCell>
        <mxCell id="xAboNISMEZ5DTB7xxnmk-7" value="ttyVCOM0" style="rounded=0;whiteSpace=wrap;html=1;fillColor=#b1ddf0;strokeColor=#10739e;fontSize=18;" vertex="1" parent="1">
          <mxGeometry x="-40" y="340" width="140" height="100" as="geometry" />
        </mxCell>
        <mxCell id="xAboNISMEZ5DTB7xxnmk-10" style="rounded=0;orthogonalLoop=1;jettySize=auto;html=1;fillColor=#60a917;strokeColor=#2D7600;fontSize=18;" edge="1" parent="1">
          <mxGeometry relative="1" as="geometry">
            <mxPoint x="-60" y="500" as="sourcePoint" />
            <mxPoint x="20" y="500" as="targetPoint" />
          </mxGeometry>
        </mxCell>
        <mxCell id="xAboNISMEZ5DTB7xxnmk-11" style="rounded=0;orthogonalLoop=1;jettySize=auto;html=1;fillColor=#0050ef;strokeColor=#001DBC;fontSize=18;" edge="1" parent="1">
          <mxGeometry relative="1" as="geometry">
            <mxPoint x="-60" y="540" as="sourcePoint" />
            <mxPoint x="20" y="540" as="targetPoint" />
          </mxGeometry>
        </mxCell>
        <mxCell id="xAboNISMEZ5DTB7xxnmk-12" style="rounded=0;orthogonalLoop=1;jettySize=auto;html=1;fillColor=#e51400;strokeColor=#B20000;fontSize=18;" edge="1" parent="1">
          <mxGeometry relative="1" as="geometry">
            <mxPoint x="-60" y="580" as="sourcePoint" />
            <mxPoint x="20" y="580" as="targetPoint" />
          </mxGeometry>
        </mxCell>
        <mxCell id="xAboNISMEZ5DTB7xxnmk-15" value="Ethernet" style="text;html=1;strokeColor=none;fillColor=none;align=left;verticalAlign=middle;whiteSpace=wrap;rounded=0;fontSize=12;" vertex="1" parent="1">
          <mxGeometry x="40" y="480" width="100" height="40" as="geometry" />
        </mxCell>
        <mxCell id="xAboNISMEZ5DTB7xxnmk-16" value="Serial Bytestream" style="text;html=1;strokeColor=none;fillColor=none;align=left;verticalAlign=middle;whiteSpace=wrap;rounded=0;fontSize=12;" vertex="1" parent="1">
          <mxGeometry x="40" y="520" width="100" height="40" as="geometry" />
        </mxCell>
        <mxCell id="xAboNISMEZ5DTB7xxnmk-17" value="Control Flow" style="text;html=1;strokeColor=none;fillColor=none;align=left;verticalAlign=middle;whiteSpace=wrap;rounded=0;fontSize=12;" vertex="1" parent="1">
          <mxGeometry x="40" y="560" width="100" height="40" as="geometry" />
        </mxCell>
        <mxCell id="xAboNISMEZ5DTB7xxnmk-21" value="" style="sketch=0;outlineConnect=0;fontColor=#232F3E;gradientColor=none;fillColor=#232F3D;strokeColor=none;dashed=0;verticalLabelPosition=bottom;verticalAlign=top;align=center;html=1;fontSize=18;fontStyle=0;aspect=fixed;pointerEvents=1;shape=mxgraph.aws4.servers;" vertex="1" parent="1">
          <mxGeometry x="-100" y="60" width="40" height="40" as="geometry" />
        </mxCell>
        <mxCell id="xAboNISMEZ5DTB7xxnmk-22" value="Business Pod" style="rounded=0;whiteSpace=wrap;html=1;fontSize=18;" vertex="1" parent="1">
          <mxGeometry x="-95" y="120" width="210" height="140" as="geometry" />
        </mxCell>
        <mxCell id="xAboNISMEZ5DTB7xxnmk-23" value="Serial API&lt;br style=&quot;font-size: 12px;&quot;&gt;/ minicom" style="rounded=0;whiteSpace=wrap;html=1;fontSize=12;" vertex="1" parent="1">
          <mxGeometry x="-30" y="220" width="120" height="80" as="geometry" />
        </mxCell>
        <mxCell id="xAboNISMEZ5DTB7xxnmk-24" style="rounded=0;orthogonalLoop=1;jettySize=auto;html=1;entryX=0.5;entryY=0;entryDx=0;entryDy=0;fillColor=#0050ef;strokeColor=#001DBC;exitX=0.5;exitY=1;exitDx=0;exitDy=0;fontSize=18;strokeWidth=2;" edge="1" parent="1" source="xAboNISMEZ5DTB7xxnmk-23" target="xAboNISMEZ5DTB7xxnmk-7">
          <mxGeometry relative="1" as="geometry">
            <mxPoint x="290" y="510" as="sourcePoint" />
            <mxPoint x="110" y="510" as="targetPoint" />
          </mxGeometry>
        </mxCell>
        <mxCell id="xAboNISMEZ5DTB7xxnmk-25" value="&lt;font style=&quot;font-size: 12px;&quot;&gt;rx/tx&lt;/font&gt;" style="edgeLabel;html=1;align=center;verticalAlign=middle;resizable=0;points=[];labelBackgroundColor=none;fontSize=18;" vertex="1" connectable="0" parent="xAboNISMEZ5DTB7xxnmk-24">
          <mxGeometry x="0.2933" y="3" relative="1" as="geometry">
            <mxPoint x="-33" y="-6" as="offset" />
          </mxGeometry>
        </mxCell>
        <mxCell id="xAboNISMEZ5DTB7xxnmk-26" value="Server 01" style="text;html=1;strokeColor=none;fillColor=none;align=center;verticalAlign=middle;whiteSpace=wrap;rounded=0;fontSize=18;" vertex="1" parent="1">
          <mxGeometry x="-40" y="60" width="100" height="40" as="geometry" />
        </mxCell>
        <mxCell id="xAboNISMEZ5DTB7xxnmk-28" value="Device Plugin&lt;br&gt;DaemonSet" style="rounded=0;whiteSpace=wrap;html=1;fontSize=18;" vertex="1" parent="1">
          <mxGeometry x="220" y="120" width="240" height="140" as="geometry" />
        </mxCell>
        <mxCell id="xAboNISMEZ5DTB7xxnmk-3" value="virt_serial.ko" style="rounded=0;whiteSpace=wrap;html=1;fillColor=#b1ddf0;strokeColor=#10739e;fontSize=12;" vertex="1" parent="1">
          <mxGeometry x="260" y="235" width="80" height="50" as="geometry" />
        </mxCell>
        <mxCell id="xAboNISMEZ5DTB7xxnmk-29" style="edgeStyle=orthogonalEdgeStyle;rounded=0;orthogonalLoop=1;jettySize=auto;html=1;exitX=0.5;exitY=1;exitDx=0;exitDy=0;" edge="1" parent="1" source="xAboNISMEZ5DTB7xxnmk-7" target="xAboNISMEZ5DTB7xxnmk-7">
          <mxGeometry relative="1" as="geometry" />
        </mxCell>
        <mxCell id="xAboNISMEZ5DTB7xxnmk-31" value="" style="rounded=0;whiteSpace=wrap;html=1;fontSize=18;" vertex="1" parent="1">
          <mxGeometry x="500" y="40" width="300" height="320" as="geometry" />
        </mxCell>
        <mxCell id="xAboNISMEZ5DTB7xxnmk-32" value="" style="sketch=0;outlineConnect=0;fontColor=#232F3E;gradientColor=none;fillColor=#232F3D;strokeColor=none;dashed=0;verticalLabelPosition=bottom;verticalAlign=top;align=center;html=1;fontSize=18;fontStyle=0;aspect=fixed;pointerEvents=1;shape=mxgraph.aws4.servers;" vertex="1" parent="1">
          <mxGeometry x="520" y="60" width="40" height="40" as="geometry" />
        </mxCell>
        <mxCell id="xAboNISMEZ5DTB7xxnmk-33" value="Server 02" style="text;html=1;strokeColor=none;fillColor=none;align=center;verticalAlign=middle;whiteSpace=wrap;rounded=0;fontSize=18;" vertex="1" parent="1">
          <mxGeometry x="580" y="60" width="100" height="40" as="geometry" />
        </mxCell>
        <mxCell id="xAboNISMEZ5DTB7xxnmk-34" value="eth0" style="rounded=0;whiteSpace=wrap;html=1;fontSize=12;" vertex="1" parent="1">
          <mxGeometry x="360" y="235" width="80" height="50" as="geometry" />
        </mxCell>
        <mxCell id="xAboNISMEZ5DTB7xxnmk-35" value="Device Plugin&lt;br&gt;DaemonSet" style="rounded=0;whiteSpace=wrap;html=1;fontSize=18;" vertex="1" parent="1">
          <mxGeometry x="530" y="120" width="240" height="140" as="geometry" />
        </mxCell>
        <mxCell id="xAboNISMEZ5DTB7xxnmk-36" value="eth0" style="rounded=0;whiteSpace=wrap;html=1;fontSize=12;" vertex="1" parent="1">
          <mxGeometry x="550" y="235" width="80" height="50" as="geometry" />
        </mxCell>
        <mxCell id="xAboNISMEZ5DTB7xxnmk-39" value="" style="endArrow=classic;startArrow=classic;html=1;rounded=0;edgeStyle=orthogonalEdgeStyle;exitX=0.5;exitY=1;exitDx=0;exitDy=0;fillColor=#60a917;strokeColor=#2D7600;strokeWidth=2;dashed=1;" edge="1" parent="1" source="xAboNISMEZ5DTB7xxnmk-34" target="xAboNISMEZ5DTB7xxnmk-36">
          <mxGeometry width="50" height="50" relative="1" as="geometry">
            <mxPoint x="440" y="410" as="sourcePoint" />
            <mxPoint x="490" y="360" as="targetPoint" />
            <Array as="points">
              <mxPoint x="400" y="390" />
              <mxPoint x="590" y="390" />
            </Array>
          </mxGeometry>
        </mxCell>
      </root>
    </mxGraphModel>
  </diagram>
</mxfile>
